<svg width="477" height="39" viewBox="0 0 477 39" fill="none" xmlns="http://www.w3.org/2000/svg">
<ellipse cx="18.5" cy="19" rx="18.5" ry="19" fill="white" fill-opacity="0.93"/>
<path fill-rule="evenodd" clip-rule="evenodd" d="M313.414 26.0627C313.533 26.6067 313.593 27.2102 313.593 27.8733C313.593 28.6723 313.465 29.3864 313.21 30.0154C312.955 30.6444 312.53 31.146 311.935 31.52C311.357 31.894 310.575 32.081 309.589 32.081C308.722 32.081 307.948 31.9705 307.268 31.7495C306.605 31.5115 306.044 31.163 305.585 30.7039C305.126 30.2279 304.786 29.5989 304.565 28.8168C304.344 28.0178 304.234 27.0572 304.234 25.9351H296.762C296.762 28.0433 297.093 29.8709 297.756 31.418C298.419 32.9481 299.329 34.2147 300.485 35.2177C301.658 36.2038 303.01 36.9433 304.54 37.4364C306.07 37.9124 307.693 38.1504 309.411 38.1504C311.179 38.1504 312.777 37.9039 314.205 37.4109C315.65 36.9178 316.882 36.2208 317.903 35.3197C318.923 34.4017 319.696 33.3136 320.223 32.0555C320.767 30.7804 321.039 29.3694 321.039 27.8223C321.039 26.2582 320.818 24.8641 320.376 23.64C319.934 22.4159 319.28 21.3194 318.413 20.3503C317.546 19.3642 316.466 18.4802 315.174 17.6981C313.882 16.8991 312.394 16.168 310.711 15.505C309.844 15.165 309.045 14.8164 308.314 14.4594C307.6 14.1024 306.979 13.7369 306.452 13.3628C305.925 12.9718 305.509 12.5383 305.203 12.0623C304.914 11.5692 304.769 11.0167 304.769 10.4047C304.769 9.58861 304.914 8.85756 305.203 8.21152C305.509 7.54848 305.968 7.02995 306.58 6.65592C307.209 6.2649 307.999 6.06938 308.951 6.06938C309.972 6.06938 310.805 6.2989 311.451 6.75793C312.097 7.21696 312.564 7.8545 312.853 8.67055C313.159 9.4696 313.312 10.3962 313.312 11.4502H320.759C320.759 9.22308 320.274 7.25096 319.305 5.53385C318.353 3.81674 317.001 2.46516 315.25 1.47909C313.516 0.493031 311.459 0 309.079 0C307.328 0 305.738 0.246516 304.31 0.739547C302.899 1.23258 301.667 1.93812 300.612 2.85618C299.558 3.75724 298.742 4.84531 298.164 6.12039C297.603 7.39547 297.323 8.81506 297.323 10.3792C297.323 11.9773 297.62 13.3713 298.215 14.5614C298.827 15.7345 299.652 16.7546 300.689 17.6216C301.726 18.4887 302.891 19.2537 304.183 19.9168C305.475 20.5628 306.809 21.1748 308.186 21.7529C309.343 22.2459 310.278 22.7219 310.992 23.181C311.723 23.64 312.275 24.099 312.649 24.5581C313.04 25.0171 313.295 25.5186 313.414 26.0627ZM332.516 21.7274H343.635V37.6404H351.03V0.510032H343.635V15.556H332.516V0.510032H325.044V37.6404H332.516V21.7274ZM364.878 37.6404V0.510032H357.457V37.6404H364.878ZM378.725 31.469V21.4469H383.774H383.8C384.752 21.4469 385.508 21.6594 386.069 22.0844C386.63 22.4924 387.03 23.0875 387.268 23.8695C387.523 24.6516 387.65 25.5696 387.65 26.6237C387.65 27.5587 387.514 28.3918 387.242 29.1228C386.97 29.8369 386.528 30.4064 385.916 30.8315C385.304 31.2565 384.505 31.469 383.519 31.469H378.725ZM390.736 18.0551C390.486 18.2131 390.221 18.3576 389.941 18.4888C390.624 18.681 391.229 18.9615 391.756 19.3302C392.946 20.1463 393.796 21.2173 394.306 22.5434C394.833 23.8525 395.097 25.2466 395.097 26.7257C395.097 29.1058 394.646 31.112 393.745 32.7441C392.861 34.3592 391.561 35.5833 389.844 36.4163C388.127 37.2324 386.018 37.6404 383.519 37.6404H378.725H374.058H371.253V0.510032H382.703C384.556 0.510032 386.214 0.714045 387.676 1.12207C389.138 1.5301 390.379 2.15064 391.399 2.98369C392.419 3.81674 393.193 4.87081 393.72 6.14589C394.264 7.42097 394.536 8.92557 394.536 10.6597C394.536 12.1898 394.23 13.6009 393.618 14.8929C393.006 16.185 392.045 17.2391 390.736 18.0551ZM385.126 15.5305C384.48 15.8705 383.647 16.0405 382.627 16.0405H378.725V6.70692H382.703C383.74 6.70692 384.582 6.86844 385.228 7.19146C385.874 7.51448 386.341 8.02451 386.63 8.72155C386.919 9.4016 387.064 10.3112 387.064 11.4502C387.064 12.4363 386.902 13.2778 386.579 13.9749C386.273 14.6549 385.789 15.1735 385.126 15.5305ZM413.115 0.510032H414.977L426.682 37.6404H418.751L416.736 29.9899H406.472L404.47 37.6404H396.59L408.194 0.510032H409.979H413.115ZM408.094 23.793H415.104L411.588 10.443L408.094 23.793ZM440.391 6.70692V37.6404H432.97V6.70692H423.917V0.510032H432.97H440.391H449.622V6.70692H440.391ZM465.295 0.510032H463.433H460.296H458.511L446.908 37.6404H454.788L456.79 29.9899H467.054L469.069 37.6404H477L465.295 0.510032ZM465.422 23.793H458.412L461.906 10.443L465.422 23.793ZM279.472 0.510032V37.6404H272.051V0.510032H279.472ZM254.735 0.510032H242.826V37.6404H250.298V24.0225H254.08L259.682 37.6404H267.664V37.2834L261.122 22.0426C261.961 21.5865 262.714 21.0479 263.38 20.4268C264.383 19.4747 265.157 18.2932 265.701 16.8821C266.245 15.454 266.517 13.7369 266.517 11.7307C266.517 9.28259 266.049 7.22546 265.114 5.55935C264.179 3.89325 262.836 2.63517 261.085 1.78511C259.334 0.935059 257.217 0.510032 254.735 0.510032ZM254.531 17.8256H250.298V6.70692H254.735C255.755 6.70692 256.58 6.93644 257.209 7.39547C257.855 7.8375 258.322 8.48354 258.611 9.33359C258.917 10.1666 259.07 11.1697 259.07 12.3428C259.07 13.4479 258.9 14.4169 258.56 15.25C258.237 16.066 257.736 16.7036 257.056 17.1626C256.393 17.6046 255.551 17.8256 254.531 17.8256ZM228.595 0.510032H226.733H223.597H221.811L210.208 37.6404H218.088L220.09 29.9899H230.354L232.369 37.6404H240.3L228.595 0.510032ZM225.206 10.443L221.712 23.793H228.722L225.206 10.443ZM207.72 37.6404V0.510032H200.631V23.997L188.875 0.510032H181.76V37.6404H188.849V14.4084L200.503 37.6404H207.72ZM169.123 0.510032H176.57V26.0116C176.57 28.8678 176.042 31.197 174.988 32.9991C173.951 34.7842 172.515 36.0933 170.679 36.9263C168.843 37.7424 166.743 38.1504 164.38 38.1504C162 38.1504 159.883 37.7424 158.03 36.9263C156.177 36.0933 154.732 34.7842 153.695 32.9991C152.675 31.197 152.164 28.8678 152.164 26.0116V0.510032H159.611V26.0116C159.611 27.6268 159.789 28.8678 160.146 29.7349C160.52 30.6019 161.056 31.197 161.753 31.52C162.467 31.826 163.343 31.979 164.38 31.979C165.434 31.979 166.301 31.826 166.981 31.52C167.678 31.197 168.205 30.6019 168.562 29.7349C168.936 28.8678 169.123 27.6268 169.123 26.0116V0.510032ZM147.778 37.6404V31.469H132.45L147.498 4.87081V0.510032H144.973H142.499H123.577V6.70692H138.933L123.73 33.1266V37.6404H125.694H128.958H147.778ZM109.5 0.510032H107.639H104.502H102.717L91.1136 37.6404H98.9936L100.996 29.9899H111.26L113.275 37.6404H121.206L109.5 0.510032ZM106.111 10.443L102.618 23.793H109.627L106.111 10.443ZM71.0449 16.6568V0.510032H63.5729V37.6404H71.0449V26.9211L74.0113 23.226L80.863 37.6404H89.661L78.8168 16.8476L89.4825 0.510032H80.4039L73.4165 12.6998L71.0449 16.6568Z" fill="white" fill-opacity="0.93"/>
</svg>
