<svg width="1318" height="123" viewBox="0 0 1318 123" fill="none" xmlns="http://www.w3.org/2000/svg">
<path fill-rule="evenodd" clip-rule="evenodd" d="M873.361 80.3155C873.673 81.7415 873.829 83.3235 873.829 85.0615C873.829 87.156 873.494 89.0276 872.826 90.6765C872.158 92.3253 871.044 93.6399 869.484 94.6203C867.969 95.6007 865.919 96.0909 863.334 96.0909C861.061 96.0909 859.034 95.8012 857.251 95.2219C855.513 94.598 854.043 93.6845 852.839 92.4813C851.636 91.2335 850.745 89.5847 850.166 87.5347C849.586 85.4403 849.297 82.9224 849.297 79.9813H829.711C829.711 85.5071 830.58 90.2977 832.318 94.3529C834.056 98.3636 836.44 101.684 839.47 104.313C842.545 106.897 846.088 108.836 850.099 110.128C854.109 111.376 858.365 112 862.866 112C867.501 112 871.69 111.354 875.433 110.061C879.221 108.769 882.452 106.942 885.125 104.58C887.799 102.174 889.827 99.3217 891.208 96.0241C892.634 92.6818 893.347 88.9831 893.347 84.9278C893.347 80.828 892.768 77.1738 891.609 73.9652C890.451 70.7567 888.735 67.8823 886.462 65.3422C884.19 62.7576 881.36 60.4403 877.973 58.3904C874.586 56.2959 870.687 54.3797 866.275 52.6417C864.003 51.7504 861.908 50.8369 859.992 49.9011C858.12 48.9652 856.494 48.0071 855.112 47.0267C853.731 46.0018 852.639 44.8654 851.837 43.6176C851.079 42.3253 850.7 40.877 850.7 39.2727C850.7 37.1337 851.079 35.2175 851.837 33.5241C852.639 31.7861 853.842 30.4269 855.446 29.4465C857.095 28.4216 859.167 27.9091 861.663 27.9091C864.337 27.9091 866.52 28.5107 868.214 29.7139C869.907 30.9171 871.133 32.5882 871.89 34.7273C872.692 36.8217 873.093 39.2504 873.093 42.0134H892.612C892.612 36.1756 891.342 31.0062 888.802 26.5053C886.306 22.0045 882.764 18.4617 878.174 15.877C873.628 13.2923 868.236 12 861.997 12C857.407 12 853.24 12.6462 849.497 13.9385C845.798 15.2308 842.568 17.0802 839.805 19.4866C837.042 21.8485 834.903 24.7005 833.388 28.0428C831.917 31.385 831.182 35.1061 831.182 39.2059C831.182 43.3948 831.961 47.049 833.521 50.1684C835.125 53.2433 837.287 55.9171 840.005 58.1898C842.724 60.4626 845.776 62.4679 849.163 64.2059C852.55 65.8993 856.048 67.5036 859.658 69.0187C862.688 70.311 865.139 71.5588 867.01 72.762C868.927 73.9652 870.375 75.1684 871.355 76.3717C872.38 77.5749 873.049 78.8895 873.361 80.3155ZM926.168 68.9519H955.313V110.663H974.698V13.3369H955.313V52.7754H926.168V13.3369H906.583V110.663H926.168V68.9519ZM1010.99 110.663V13.3369H991.543V110.663H1010.99ZM1047.29 94.4866V68.2166H1060.53H1060.59C1063.09 68.2166 1065.07 68.7736 1066.54 69.8877C1068.01 70.9572 1069.06 72.5169 1069.68 74.5669C1070.35 76.6168 1070.69 79.0232 1070.69 81.7861C1070.69 84.2371 1070.33 86.4207 1069.62 88.3369C1068.9 90.2086 1067.75 91.7014 1066.14 92.8155C1064.54 93.9296 1062.44 94.4866 1059.86 94.4866H1047.29ZM1078.78 59.3262C1078.12 59.7402 1077.42 60.1191 1076.69 60.463C1078.48 60.9668 1080.07 61.7019 1081.45 62.6685C1084.57 64.8075 1086.8 67.615 1088.13 71.0909C1089.51 74.5223 1090.21 78.1765 1090.21 82.0535C1090.21 88.2923 1089.02 93.5508 1086.66 97.8289C1084.35 102.062 1080.94 105.271 1076.44 107.455C1071.93 109.594 1066.41 110.663 1059.86 110.663H1047.29H1035.06H1027.71V13.3369H1057.72C1062.58 13.3369 1066.92 13.8717 1070.75 14.9412C1074.59 16.0107 1077.84 17.6373 1080.51 19.8209C1083.19 22.0045 1085.21 24.7674 1086.6 28.1096C1088.02 31.4519 1088.73 35.3957 1088.73 39.9412C1088.73 43.9519 1087.93 47.6506 1086.33 51.0374C1084.72 54.4243 1082.21 57.1872 1078.78 59.3262ZM1064.07 52.7086C1062.38 53.5998 1060.19 54.0455 1057.52 54.0455H1047.29V29.5802H1057.72C1060.44 29.5802 1062.64 30.0036 1064.34 30.8503C1066.03 31.697 1067.26 33.0339 1068.01 34.861C1068.77 36.6435 1069.15 39.0276 1069.15 42.0134C1069.15 44.5981 1068.73 46.8039 1067.88 48.631C1067.08 50.4136 1065.81 51.7727 1064.07 52.7086ZM1141.54 13.3369H1146.42L1177.1 110.663H1156.32L1151.03 90.6096H1124.13L1118.88 110.663H1098.23L1128.64 13.3369H1133.32H1141.54ZM1128.38 74.3663H1146.76L1137.54 39.3733L1128.38 74.3663ZM1217.14 29.5802V110.663H1197.69V29.5802H1173.96V13.3369H1197.69H1217.14H1241.34V29.5802H1217.14ZM1286.53 13.3369H1281.65H1273.43H1268.75L1238.33 110.663H1258.99L1264.24 90.6096H1291.14L1296.42 110.663H1317.21L1286.53 13.3369ZM1286.86 74.3663H1268.49L1277.65 39.3731L1286.86 74.3663ZM784.39 13.3369V110.663H764.938V13.3369H784.39ZM719.551 13.3369H688.334V110.663H707.92V74.9679H717.833L732.519 110.663H753.441V109.727L736.293 69.7782C738.492 68.5827 740.465 67.1709 742.211 65.5428C744.84 63.0472 746.868 59.9501 748.294 56.2513C749.72 52.508 750.433 48.0071 750.433 42.7487C750.433 36.3316 749.208 30.9394 746.757 26.5722C744.306 22.205 740.785 18.9073 736.195 16.6792C731.605 14.451 726.057 13.3369 719.551 13.3369ZM719.016 58.7246H707.92V29.5802H719.551C722.224 29.5802 724.386 30.1818 726.035 31.385C727.728 32.5437 728.953 34.2371 729.711 36.4653C730.513 38.6489 730.914 41.2781 730.914 44.353C730.914 47.2496 730.469 49.7897 729.577 51.9733C728.731 54.1123 727.416 55.7834 725.634 56.9866C723.896 58.1453 721.69 58.7246 719.016 58.7246ZM648.294 13.3369H643.414H635.192H630.513L600.099 110.663H620.754L626.002 90.6096H652.905L658.187 110.663H678.976L648.294 13.3369ZM639.411 39.3732L630.253 74.3663H648.627L639.411 39.3732ZM589.47 110.663V13.3369H570.888V74.9011L540.072 13.3369H521.422V110.663H540.005V49.7674L570.553 110.663H589.47ZM486.93 13.3369H506.449V80.1818C506.449 87.6685 505.068 93.7736 502.305 98.4973C499.586 103.176 495.821 106.608 491.008 108.791C486.195 110.93 480.692 112 474.497 112C468.258 112 462.71 110.93 457.853 108.791C452.995 106.608 449.208 103.176 446.489 98.4973C443.815 93.7736 442.479 87.6685 442.479 80.1818V13.3369H461.997V80.1818C461.997 84.4153 462.465 87.6685 463.401 89.9412C464.381 92.2139 465.785 93.7736 467.612 94.6203C469.484 95.4225 471.779 95.8235 474.497 95.8235C477.26 95.8235 479.533 95.4225 481.315 94.6203C483.142 93.7736 484.524 92.2139 485.46 89.9412C486.44 87.6685 486.93 84.4153 486.93 80.1818V13.3369ZM430.981 110.663V94.4866H390.802L430.246 24.7674V13.3369H423.628H417.144H367.545V29.5802H407.797L367.946 98.8316V110.663H373.094H381.65H430.981ZM330.647 13.3369H325.767H317.545H312.866L282.452 110.663H303.107L308.355 90.6096H335.258L340.54 110.663H361.329L330.647 13.3369ZM321.764 39.3732L312.606 74.3663H330.98L321.764 39.3732ZM232.586 55.6608V13.3369H213V110.663H232.586V82.5658L240.361 72.88L258.321 110.663H281.382L252.957 56.1609L280.914 13.3369H257.118L238.802 45.2888L232.586 55.6608Z" fill="#EEEEEE"/>
<path d="M124 61.5C124 95.4655 96.2417 123 62 123C27.7583 123 0 95.4655 0 61.5C0 27.5345 27.7583 0 62 0C96.2417 0 124 27.5345 124 61.5Z" fill="#EEEEEE"/>
</svg>
